<?xml version="1.0" encoding="UTF-8"?>
<svg xmlns="http://www.w3.org/2000/svg" version="1.1" viewBox="0 0 1024 1024">
  <defs>
    <style>
      .st1 {
        opacity: .2;
      }

      .st1, .st2, .st3, .st4 {
        fill: #fff;
      }

      .st2 {
        opacity: .8;
      }

      .st3 {
        opacity: .7;
      }

      .st5 {
        fill: var(--bg, #fcee21);
      }

      .st6 {
        fill: #d76461;
      }

      .st7 {
        fill: var(--shade, #c9bf00);
      }

      .st8 {
        opacity: .2;
      }

      .st9 {
        opacity: .3;
      }

      .st10 {
        fill: #331818;
      }

      .st11 {
        fill: var(--accent, #dd26f7);
      }
    </style>
  </defs>
  <rect id="background" class="st5" width="1024" height="1024"/>
  <g id="mouths">
    <g id="mouth-1">
      <path d="M334.8,679.4c130.1,113.7,291.1,80.9,365.3-29-55,161.8-307.4,145-365.3,29Z"/>
      <path class="st8" d="M462,798.4c44.7,12.9,105.7,8.3,135.2-10.2-25.1,37.5-118.5,32.9-135.2,10.2Z"/>
      <path class="st8" d="M347.1,652.2c-12.4-.2-45.1,7.9-43.1,41.4-7.7-21.9,7.1-53.1,43.1-41.4Z"/>
      <path class="st8" d="M681.7,629.5c10.8-.8,49.7,1.3,49.3,35.4,8.1-23.4-12.5-49.7-49.3-35.4Z"/>
    </g>
    <g id="mouth-2">
      <path class="st8" d="M450,831.8c22.8-24.7,77.3-55,110.7-8.8-37.3-27-74.7-8.4-110.7,8.8Z"/>
      <path d="M522.6,639.3s148.9-37.6,177.7,47.2c22.6,66.7-38.1,77.5-38.1,77.5,0,0,28.1,73.5-9.6,103.6-30.7,24.6-74.6,28.9-108.2-30.6-25.5-45.2-23.1-61.9-50.2-67.8-36.9,7.2-79.3,26.3-96.2,24-16.8-2.3-53-5.1-42.2-58,14.5-60.5,166.9-95.7,166.9-95.7Z"/>
      <path class="st10" d="M499.2,661.1s-89.6,38.7-103.4,47-27.8,24.3-27.8,49.7,8,33.5,54.5,18.6c46.5-14.9,97.8-46.1,133.9-51.4,78-11.6,58.5,45.1,103.3,29.8,23.7-8.1,33.5-23.9,35.6-39.7,1.9-14.7-3.9-38.2-27.4-52.6-36.6-22.3-67.3-20.4-168.6-1.3Z"/>
      <path class="st4" d="M409.7,699.8c-5.6,15.1,198.3,22,230.4-33,.9-7.4,1.3-12.6-1.6-18.6-57.1-22.6-218.6,29.3-228.8,51.6Z"/>
      <path class="st6" d="M564.7,721.9c9.7-.8,29.5-9.6,52.9,3.5,23.4,13.1,42.1,59.8,42.1,74.3,0,17-1.9,48.9-25.9,59.9-24.1,11-44.8,5-61.1-8.9s-39.5-77.8-61.1-89.5-42.6,2.1-42.6,2.1c0,0,13.6-29,43.8-33.8,30.2-4.8,26.1-3.8,38.8-1.3,12.7,2.5,46.8,24.7,56.5,60.9.6-18.4-28.6-57.2-43.5-67.1Z"/>
      <path class="st8" d="M332.1,727.6c-18.5,25.5-22.8,82.9,36,89.1-48.3-30.3-41.2-49.3-36-89.1Z"/>
      <path class="st8" d="M723.4,675.1c17.7,28.4,36.7,75.2-20.7,100.8,38.4-34,32.6-64.5,20.7-100.8Z"/>
      <path class="st10" d="M626.8,807.3"/>
    </g>
    <g id="mouth-3">
      <path d="M362.9,724.2c53.5,18.1,184.3,93.2,323.5-53.5-89.9,180.2-308.3,87.2-323.5,53.5Z"/>
      <path class="st8" d="M483.6,807.6c21.9,7.8,74.2,25.8,130.5-20.6-46.2,67.8-123,30.3-130.5,20.6Z"/>
      <path class="st8" d="M715.7,697.9c3.7-41.8-18.8-62.4-56.6-48.9,61.5-29,65.2,32.5,56.6,48.9Z"/>
    </g>
    <g id="mouth-4">
      <path d="M705.2,800.6c0,80.8-52.8,123.4-189,123.4s-186.7-42.6-186.7-123.4,68.9-169.3,186.7-169.3c117.9,0,189,88.4,189,169.3Z"/>
      <path class="st10" d="M691.6,799c0,75-48,114.5-175.3,114.5s-173.2-39.5-173.2-114.5,64-157.1,173.2-157c109.4,0,175.3,82.1,175.3,157Z"/>
      <path class="st4" d="M623.2,674.1c-28.1-19.7-64.2-32.2-106.9-32.2-42.1,0-77.5,12.2-105.1,31.5,47.8,16,136.6,28.5,212,.7Z"/>
      <path class="st6" d="M404.8,890.1s-7-27.5,10.4-51.6c17.5-24.1,29.4-26.9,56.1-29.9,26.7-3.1,45.8,15.1,45.8,15.1,0,0,9.3-16.6,39.5-15.6,30.2,1,49.6,7.7,59.1,27.7,11.8,25,17.1,54.8,17.1,54.8l-228.1-.4Z"/>
      <path class="st4" d="M516.3,913.5c75.6,0,123.2-13.9,149.4-40.9-1.7-6-3.7-12.7-4.3-15-1.3-4.4-10.5-6.6-20.1-5.5-9.6,1.1-4.4,10.3-7.9,14.7-3.5,4.4-56.5,17.1-76.6,19.2-20.1,2.1-56.5,3.1-84.1,1-27.6-2.1-72.3-24.2-75.3-28.1s-6.1-7.9-15.8-6.6c-9.6,1.3-10.5,14-10.5,14l-1.5,5.4c26.8,27.6,74.8,41.8,146.7,41.8Z"/>
    </g>
    <g id="mouth-5">
      <path class="st10" d="M509.9,697.3c6.6-.5,13.1-1.4,19.5-2.8,39-8,61.7-35.4,97.3-36.6,20.4-1,42.4,4.1,58.7,16.2,17.9,12.5,24.9,34.9,24.4,56.9,0,11.9-1.5,23.6-5.4,34.2-10.7,30.7-49.4,37.2-78.1,29.8-32-8.3-59.5-26.4-94-26.4-14.3-.3-29.6,1.6-43.8,4.2-46.5,7-88.5,34.2-126.8,12.9-23.1-12.6-32-42.9-25.3-67.6,6.1-25.8,30.6-39.5,55.3-39,29.4,0,56.8,16.3,93.6,18.3,8,.6,16.3.6,24.4,0h.2Z"/>
      <polygon class="st4" points="373.4 736.8 356 698 377.5 686.4 406.8 686.4 468.3 700.5 500.5 702.8 546.8 694.1 589.6 673.5 640 661.2 672.8 671.8 687.5 681.7 671.6 724.5 535 732.1 671.6 733.3 693.9 773.2 681 784.9 642.9 793.7 600.7 783.7 562.1 768.5 516.9 762.6 473.6 770.8 426.7 785.5 388.6 790.7 359.7 777.9 371.6 744.9 475 735.3 373.4 736.8"/>
      <path d="M685.4,674.1c-16.2-12.1-38.3-17.2-58.7-16.2-35.6,1.2-58.3,28.6-97.3,36.6-6.4,1.4-12.9,2.3-19.5,2.8h-.2c-8.1.6-16.4.6-24.4,0-36.8-2-64.2-18.3-93.6-18.3-24.7-.5-49.2,13.3-55.3,39-6.7,24.7,2.2,54.9,25.3,67.6,38.3,21.2,80.3-5.9,126.8-12.9,14.2-2.6,29.5-4.5,43.8-4.2,34.5,0,62,18.1,94,26.4,28.7,7.4,67.4.9,78.1-29.8,4-10.6,5.4-22.3,5.4-34.2.5-21.9-6.5-44.4-24.4-56.9ZM700,730.9c0,12.3-1.7,22.4-4.8,30.9v.2c-4.9,13.9-16.9,20.2-26,23.1-12.2,3.8-27,4-40.5.5-10.9-2.8-21.1-6.8-32-11-19.9-7.7-40.4-15.7-64.4-15.7-13.2-.3-28.1,1.1-45.5,4.3-15.1,2.3-29.5,6.5-43.4,10.6-29.1,8.6-54.3,16-77.1,3.4-19.6-10.7-25.8-37.1-20.6-56.5v-.3c3.9-16.1,19.4-32,45.7-31.5h.2c13.3,0,26.8,3.9,41.2,8,15.1,4.3,32.3,9.2,51.8,10.3,8.7.6,17.4.6,25.7,0h.3c7.2-.6,14.2-1.6,20.7-3,19.3-4,35.1-12.4,49-19.9,16-8.6,29.8-16,46.7-16.6h.1c19.5-1,39.1,4.4,52.4,14.3l.2.2c13.3,9.3,20.7,27.1,20.2,48.7h0Z"/>
      <path class="st8" d="M464.7,821c17.2-23.2,83.3-31.8,111.2-2-33.1-15.5-80-14.5-111.2,2Z"/>
    </g>
    <g id="mouth-6">
      <path d="M611.3,766.3c0,66.6-36.6,112.3-96.9,112.3s-95.5-45.8-95.5-112.3,35.2-126,95.5-126,96.9,59.4,96.9,126Z"/>
      <path class="st10" d="M600.7,765.6c0,59.2-32.5,99.9-86.1,99.9s-84.9-40.7-84.9-99.9,31.3-112,84.9-112,86.1,52.8,86.1,112Z"/>
      <path class="st6" d="M586.7,824.6c-17.7-14.1-42.5-22.9-69.9-22.9s-54.6,9.6-72.5,24.9c14.2,24.3,38.2,38.7,70.2,38.7s57.8-15.3,72.2-40.8Z"/>
      <path class="st4" d="M515.5,691.4c21.9,0,42.6-2.2,60.6-6.1-14.8-19.4-35.7-31.7-61.6-31.7s-46.4,12.2-60.8,31.5c18.3,4.1,39.4,6.4,61.8,6.4Z"/>
      <path class="st8" d="M459.4,881.6c22.7,31.7,83.4,26.9,109.3,4-52.3,50.6-106.1,7.8-109.3-4Z"/>
    </g>
    <g id="mouth-7">
      <path d="M368.6,762.6c87-58.2,192.5-75.6,265.7-33.1-67.4-111.4-258.4-3.5-265.7,33.1Z"/>
      <path class="st8" d="M467.3,778.7c36.1-33.7,63.5-31.2,98.7-21.4-14.7-21.6-78.4-21.5-98.7,21.4Z"/>
    </g>
    <g id="mouth-8">
      <path class="st10" d="M516.1,689.4c27.5-2.2,54.6-6.3,81.1-14,22.1-5.5,39.7-17.1,57.8-16.7,13.2.1,27.5,8.2,31.7,21.8,4.2,13.3,1.5,26.1-3.8,40.1-9.2,23-26,42.3-43.3,59.5-22.1,22-48.1,36.7-78.9,42.7-16.2,3.4-33.4,4.9-50,3.9-46.4-2.8-95.2-25.1-121.8-50.3-7.3-7.1-13.1-15.3-18.4-24.4-6.6-11.3-13.1-24.6-16.1-36.7-4.3-15-.6-32.9,12.5-40.8,16.7-11,42.2,5.5,68.6,10.1,26.5,6.2,53.6,7.3,80.5,4.8h.2Z"/>
      <path class="st6" d="M553.9,762.8c-26.4.1-33.2,8.7-33.2,8.7,0,0-1.8-11.4-44.9-3.5-38.8,7.2-55.1,31.2-55.1,31.3,26,14.7,58.5,25.5,90,27.4,16.7,1,33.9-.5,50-3.9,20.6-4.1,39-12,55.6-23.4l.8-7s-17.9-29.7-63.2-29.5Z"/>
      <path d="M655,658.7c-18.1-.4-35.7,11.2-57.8,16.7-26.5,7.7-53.7,11.8-81.1,14h-.2c-26.8,2.5-54,1.4-80.5-4.8-26.3-4.7-51.9-21.1-68.6-10.1-13.1,7.9-16.7,25.8-12.5,40.8,3,12.1,9.6,25.4,16.1,36.7,5.4,9.1,11.2,17.3,18.4,24.4,26.6,25.2,75.4,47.5,121.8,50.3,16.7,1,33.9-.5,50-3.9,30.7-6.1,56.8-20.7,78.9-42.7,17.3-17.2,34.1-36.4,43.3-59.5,5.3-14,8-26.8,3.8-40.1-4.2-13.6-18.5-21.7-31.7-21.8ZM671.6,716.1c-8.8,21.9-25.4,40.2-40.6,55.3-21.1,21-44.8,33.9-72.6,39.4h-.1c-15.7,3.3-31.9,4.6-46.8,3.7-40.6-2.4-87.5-21.7-114-46.9-5.6-5.5-10.9-12.4-16.4-21.7-7.4-12.6-12.5-24.2-14.8-33.6v-.4c-2.8-9.4-1.2-22.1,7-27l.4-.3c6.3-4.1,19.1,0,32.6,4.5,8.6,2.8,17.4,5.7,26.8,7.4,26.1,6,54.3,7.7,84,5h.1c31.3-2.6,58.6-7.3,83.3-14.4,9.3-2.3,17.8-5.6,25.4-8.6,10.9-4.2,20.3-7.9,29-7.7h.1c7.8,0,17.5,4.7,20.1,13.2h0c2.8,8.9,1.8,18.1-3.5,32.1Z"/>
      <path class="st8" d="M375.8,651.6c-54.7-8.8-56.7,37.3-49.1,65.2,2-35.7,8.4-55.9,49.1-65.2Z"/>
      <path class="st8" d="M672.5,638.4c44.6-7.2,48.9,28.1,42.7,50.8-1.6-29.1-9.5-43.3-42.7-50.8Z"/>
      <path class="st8" d="M573.4,848.9c-47.8,37.4-96,17.5-112.2,0,28.5,12.6,63.1,13.1,112.2,0Z"/>
    </g>
    <g id="mouth-9">
      <path class="st10" d="M518,666.6c143-5.9,180.4-58.3,207.7-36.7,41.3,32.7-31.6,238.9-227.4,238.9-176.1,0-230.7-208.8-205.9-235.9,22.5-24.6,82.7,39.6,225.6,33.7Z"/>
      <path class="st6" d="M548.2,765.7c-28.5-1.9-37.1,19.5-37.1,19.5,0,0-4.3-24.7-51.3-15-42.3,8.7-42.1,48.4-42.1,56.2,27.1,23.6,178.5-1,178.5-1,0,0,.5-56.5-47.9-59.7Z"/>
      <path class="st4" d="M403,833.1l1.8-17c78.4-7.2,129.5-8.6,204.5-.9l4.8,21.2c-85,40.6-141.4,38.4-211.1-3.3Z"/>
      <path class="st4" d="M324.9,636.9s-.6,28.1,9.2,47.4c93.1,55.4,256.6,49.2,355.1,0,8.5-5.3,15.3-41.7,8.9-49.5-119.3,46.2-249,46-373.2,2.1Z"/>
      <path d="M498.2,868.8c195.8,0,268.7-206.2,227.4-238.9-27.3-21.6-64.7,30.8-207.7,36.7-143,5.9-203.1-58.2-225.6-33.7-24.8,27,29.8,235.8,205.9,235.9ZM301.9,675.8c-3.8-22.3-.9-32.4.5-34.3,3.8-3.9,21,2.2,39.2,8.6,37.1,13.1,93,32.9,177,29.4,80.6-3.3,128.4-21,160-32.6,24.4-9,32.8-11.6,38.7-6.9,7,5.5,10.6,30-3,67.1-13.7,37.3-39.9,73.4-72.1,99.3-40.7,32.8-89.1,49.4-143.9,49.4h0c-99.3,0-150.8-70.2-172.6-112.1-11.7-22.3-20.1-46.4-23.7-68Z"/>
      <path class="st8" d="M316.1,604.9c-60.4-14-64.3,30.6-57.2,58.7,4.2-36.3,14.7-54.2,57.2-58.7Z"/>
      <path class="st8" d="M701,603.4c53.8-12.6,65.7,28.6,56.1,58.2-.2-38.6-20.3-51.7-56.1-58.2Z"/>
      <path class="st8" d="M579.4,888.4c-62.9,42-114.8,20.8-136.3-.5,36.8,17,71.3,15,136.3.5Z"/>
    </g>
    <g id="mouth-10">
      <path class="st10" d="M525.3,666.6c136.8-3,207.7-47.7,207.7-47.7,0,0-21.5,224.1-227.4,220.4-205.9-3.7-205.9-191.8-205.9-191.8,0,0,88.9,22,225.6,19Z"/>
      <path class="st8" d="M711.5,594.2c53.9-18.9,61.3,19,45,53.1,8.2-43.3-9.1-54.2-45-53.1Z"/>
      <path class="st8" d="M318.6,621.7c-53.9-18.9-61.3,19-45,53.1-8.2-43.3,9.1-54.2,45-53.1Z"/>
      <path class="st8" d="M586.8,856.7c-62.9,37-114.8,18.4-136.3-.4,36.8,15,71.3,13.2,136.3.4Z"/>
      <path class="st4" d="M342.4,718.6l-14.3-57.9c111.2,34.6,265.6,10.3,372.6-22.9l-18.9,76.3c-39.7,12.6-93.5,31.8-152.2,34,54.8,3,106.4-14.3,152.2-26.6l7.2,14.4c-58.7,93.7-251.5,154.3-352.9,14.8l4.5-25.3c36.5,12.8,81.5,20.6,129.1,23.6-46-7.5-89.8-18.4-127.3-30.3Z"/>
      <path d="M733,618.9c-10.3,0-73.1,39-207.7,47.7-136.5,8.8-225.6-19-225.6-19,0,0,0,188.1,205.9,191.8,205.9,3.7,227.4-220.4,227.4-220.4ZM620.5,799.3c-32,20.1-70.5,29.9-114.6,29.1-44.1-.8-81.6-11.4-111.4-31.6-23.9-16.2-43.2-38.6-57.4-66.7-16.2-32.1-20-43.6-22.1-64.6,31.3,10.1,120.9,22,194.4,19.2,73.6-2.9,176.9-24.4,208.2-46.5-4.1,22.3-13.3,50.6-32.5,83.1-17.2,29.2-39,61.9-64.7,78.1Z"/>
    </g>
    <g id="mouth-11">
      <path class="st10" d="M507.7,646.2c108.4,0,195,95,172.8,129-34.7,53.1-66.5-10.3-172.8-8.1s-117.2,60-154.5,23.2c-39.4-38.8,46.1-144.1,154.5-144.1Z"/>
      <path class="st6" d="M559.3,724c-34.1-4.1-49.6,7.6-49.6,7.6,0,0-10.4-13.1-54.2-3.4-49.6,11.1-43,57.9-43,58,51.4-28.3,127.5-30,199.1-3.4,0,0,5.3-51.8-52.3-58.9Z"/>
      <path class="st8" d="M579.3,830.2c-62.1-48.8-108.5-22.8-129.5,0,43.1-23.4,80.8-23.8,129.5,0Z"/>
      <path d="M680.5,775.2c22.2-34-64.4-129-172.8-129s-193.9,105.3-154.5,144.1c37.3,36.8,48.3-21,154.5-23.2,106.2-2.2,138.1,61.2,172.8,8.1ZM400.7,781.3c-21.4,10.5-25.9,12.7-38.7,0-5.1-5.1-9.6-15.1-1.9-34,8.4-20.5,28.3-42.7,53.2-59.1,20.3-13.5,53.2-29.5,94.5-29.5s77.7,15.6,99.5,28.7c26,15.6,47.8,36.6,58.3,56.2,5.8,10.7,7.5,20.2,4.5,24.8-13.4,20.6-21.7,18.6-54.3,6.7-24.9-9.1-59.1-21.5-108.2-20.5-54.6,1.1-86,16.5-106.8,26.7Z"/>
    </g>
    <g id="mouth-12">
      <path class="st10" d="M366.1,721.8c0,19.4,104.9-7.3,163.8,5.8,55.8,12.4,164.2,61.6,162.5-18.2-1.7-81.1-98.2-59-179.6-25.9-75.4,30.6-146.6,22.2-146.7,38.3Z"/>
      <path class="st4" d="M666.8,666.4c-3.1,12.3-3.3,24.1-7.5,34.7l-65.7,4.1,65.3,1.7c5.6,9.8,5.9,29.9,7.9,40.5-64.7,3-127.4-39.4-274.3-26.7,32.5-6.2,165.8-13.8,165.8-13.8l-146.2,7.3c86.1-12.6,198.4-73.7,254.7-47.8Z"/>
      <path d="M512.8,683.5c-75.4,30.6-146.6,22.2-146.7,38.3,0,19.4,104.9-7.3,163.8,5.8,55.8,12.4,164.2,61.6,162.5-18.2-1.7-81.1-98.2-59-179.6-25.9ZM673.1,738.1c-19.7,15.1-69.6.6-106-10.1-12.7-3.7-24.8-7.2-35.2-9.5-13.3-3-28.7-4-44.7-4s-70.4,3.7-80.5,4.1c4-.6,68.6-9.8,109.6-26.4,73.4-29.8,125.1-37,149.6-20.9,11.2,7.4,16.8,19.9,17.2,38.3.3,13.8-3,23.1-10,28.5Z"/>
      <path class="st8" d="M462.5,769.6c54-8.7,82.5,3.9,107.9,21.7-15.3-39.3-77.8-42.2-107.9-21.7Z"/>
      <path class="st8" d="M348.2,760.1c-14.3-37.3-6.3-59.9,13.5-77-40.2,13.5-36.1,57.5-13.5,77Z"/>
      <path class="st8" d="M713.3,707.5c-8.4-53.7-19.2-51.9-46.5-66.7,35.5-.6,57.2,20.7,46.5,66.7Z"/>
    </g>
    <g id="mouth-13">
      <path class="st10" d="M532.9,730.5c39.1,20,60.3,108.9,127,79.6,46.4-20.4,37.1-71.9,37.1-71.9,0,0,41.4-6.6,30.1-49-11.3-42.4-54.6-47.1-81-42.4-26.4,4.7-100.3,41.4-140.3,48-56.5,9.3-174.3-49.3-169,31.8,5.5,84.1,99.6,6.1,196,3.9Z"/>
      <path class="st6" d="M512,723.5c0-17.1,55.8-29.9,63.3-30.4,7.5-.5,38.2,5,51.2,39.2-4-39.2-40.6-35.8-31.7-43.8,14.1-15.1,78.7-13.3,90.7,40.3,8,35.7-1.6,54.8-19.7,68.4-18.1,13.6-53.4,13.2-75.1-15.1-31-40.4-55.8-59.9-78.8-58.8Z"/>
      <path d="M727.2,689.2c-11.3-42.4-54.6-47.1-81-42.4-26.4,4.7-100.3,41.4-140.3,48-56.5,9.3-174.3-49.3-169,31.8,5.5,84.1,99.6,6.1,196,3.9,39.1,20,60.3,108.9,127,79.6,46.4-20.4,37.1-71.9,37.1-71.9,0,0,41.4-6.6,30.1-49ZM715.9,715.9c-6.5,10.1-20.3,12.6-20.4,12.6l-9.8,1.6,1.7,9.8c.3,1.8,7.2,44.3-31.5,61.3-34.4,15.1-52.7-4.8-78.9-39.3-12.5-16.5-24.3-32.2-39.7-40l-2.2-1.1h-2.5c-36.3.9-71.5,11.8-102.6,21.4-31.2,9.7-60.7,18.8-73.4,10.1-5.9-4.1-9-15.2-10.1-26.3-.9-8.9,1.5-20.8,7.1-25.8,13.9-12.5,50.1-6.4,82.1-1.1,25.4,4.3,51.6,8.7,71.7,5.4,23.5-3.9,57.1-17.2,86.8-29.1,22.1-8.8,43-17.1,53.6-19,5.9-1.1,58-9,69.8,35.3,2.7,10,2,18.1-1.9,24.2Z"/>
      <path class="st8" d="M742.8,740.1c19.2-48.2,16.5-67.7-14.6-100.5,43,16.6,42.3,73.9,14.6,100.5Z"/>
      <path class="st8" d="M353.4,786.7c-33.2-16.4-53.7-27-37.3-85.6-31.9,41.7-3.7,90.3,37.3,85.6Z"/>
    </g>
    <g id="mouth-14">
      <path class="st8" d="M464.2,782.8c23.6,15.2,56.1,29.7,104.9,0-51.8,9.8-60.7,10.3-104.9,0Z"/>
      <path d="M360.9,694.9c66.2,35,160.6,97.7,311.5,0-144.6,43.5-174.5,41.5-311.5,0Z"/>
    </g>
    <g id="mouth-15">
      <path d="M334.8,762c130.1-113.7,283.7-102,358,7.9-55-161.8-300.1-123.9-358-7.9Z"/>
      <path class="st8" d="M464.4,748.4c36.4-12.9,85.9-14.2,109.9,2.8-19.4-30.5-95.5-21.3-109.9-2.8Z"/>
      <path class="st8" d="M345.8,787.8c-9.6.2-34.8-6.1-33.3-32-5.9,16.9,5.5,41,33.3,32Z"/>
      <path class="st8" d="M675.1,799.6c9.3.7,42.9-1.1,42.5-30.5,7,20.2-10.8,42.8-42.5,30.5Z"/>
    </g>
    <g id="mouth-16">
      <path d="M345.3,732.4s11.5-19.4,24.8-21.6c13.3-2.2,42.7,25.3,69.3,25.3s41.9-25.9,67.2-28.6c25.4-2.7,43.7,28,68.5,23.7,24.8-4.3,30.6-20.5,43.3-19.9,12.7.5,24.8,17.2,41.1,16.2,16.3-1.1,24.8-20.1,24.8-20.1,0,0-4.2,7.2-18.1,7.2s-23.6-21-45.9-19.9c-22.4,1.1-27.2,20.4-48.9,20.7-21.7.3-24.8-26.1-64-24-39.3,2.2-39.3,28-68.3,28.6-29,.5-33.2-23.7-64.6-22.6-31.4,1.1-29,35-29,35Z"/>
    </g>
    <g id="mouth-17">
      <path d="M607.6,762.4c0,25.5-39.1,37-93.5,37s-89.7-7.8-89.7-33.3,42.1-62.2,96.5-62.2,86.7,32.9,86.7,58.4Z"/>
      <path class="st10" d="M594.3,759.8c0,19.2-33.4,27.9-79.9,27.9s-76.7-5.9-76.7-25.1,35.9-46.8,82.4-46.8,74.1,24.8,74.1,44Z"/>
      <path class="st6" d="M449.5,778.9c12.9,6.5,35.6,8.8,64.8,8.8,44.3,0,76.6-7.9,79.6-25.2-14.2-11.9-35.7-19.5-59.9-19.5s-70.9,15-84.5,35.9Z"/>
    </g>
    <g id="mouth-18">
      <path class="st10" d="M517.8,679.5c34.6-.4,35.1-19.2,79-15.5,31.5,2.7,109.6,73.1,76.3,102.6-40.2,35.5-111.9-18.8-155.9-19.2-52.6-.5-123.2,56-150.7,31.2s25.4-104.1,64.7-108.6c53.2-6,52,9.8,86.6,9.4Z"/>
      <path class="st6" d="M377.7,774c7.1-21.2,99-79.1,140.4-49.7,41.3-23.3,114.7-13.2,140.4,46-54.8,9.1-96.7-24.1-141.7-23.7-45,.4-116.4,32.4-139.2,27.4Z"/>
      <path d="M596.8,664.1c-44-3.7-44.4,15-79,15.5-34.6.4-33.4-15.5-86.6-9.4-39.3,4.5-98,78.5-64.7,108.6,27.4,24.8,98.1-31.7,150.7-31.2,44,.4,115.8,54.8,155.9,19.2,33.4-29.5-44.7-99.9-76.3-102.6ZM665.8,758.5c-20.9,18.5-55.8,5.7-89.6-6.7-21.2-7.8-41.3-15.1-58.9-15.3-.3,0-.5,0-.8,0-25,0-51.8,10.8-77.7,21.3-26.8,10.9-54.6,22.1-64.9,12.7-6.7-6-8-15.5-4-28.2,8.8-27.4,40.9-58.9,62.5-61.4,8.1-.9,14.8-1.3,20.5-1.3,14.5,0,22.3,2.5,30.5,5.1,9,2.9,18.4,5.8,34.5,5.7,17.7-.2,28-4.8,37.1-8.8,10.4-4.6,19.3-8.5,40.9-6.7,18.3,1.6,63.4,36.7,72.8,65.3,3.6,10.7.3,15.4-2.9,18.2Z"/>
      <path class="st8" d="M469,806.4c28.6-21.5,50.1-40.8,95.2-2.5-38.4-58.6-86.9-15-95.2,2.5Z"/>
      <path class="st8" d="M665.1,810.8c19.8-7.8,51-18.8,40-59.8,23.7,43.7-18.5,65.3-40,59.8Z"/>
      <path class="st8" d="M365.5,810c-24-7.5-45.6-10.3-37-57.7-29.7,47.1,11.3,64.9,37,57.7Z"/>
    </g>
    <g id="mouth-19">
      <path d="M388.1,734.8c94.4,40.8,227.3-115.8,298.9-37-103.8-28.6-188.1,80.8-298.9,37Z"/>
      <path class="st1" d="M512.9,791.7c30.7-21,68.9-28.5,117.7-17.1-11.4-1.9-66.2-43.2-117.7,17.1h0Z"/>
      <path class="st1" d="M694.7,646.2c35.8,17.5,51,82.9-2.1,92.1,39-21.7,30.6-63.1,2.1-92.1Z"/>
    </g>
    <g id="mouth-20">
      <ellipse cx="514" cy="671.6" rx="185" ry="10.8"/>
      <path class="st8" d="M453.9,740.7c21.3-23.7,88-39.8,129,1.7-51.4-15.5-74.3-15.6-129-1.7Z"/>
    </g>
  </g>
  <g id="eyes">
    <g id="eyes-1">
      <circle class="st4" cx="373" cy="405.4" r="109.9"/>
      <circle cx="373" cy="405.4" r="37.1"/>
      <circle class="st4" cx="383.7" cy="390.8" r="10.1"/>
      <circle class="st4" cx="650.2" cy="405.4" r="109.9"/>
      <circle cx="650.2" cy="405.4" r="37.1"/>
      <circle class="st4" cx="660.9" cy="390.8" r="10.1"/>
    </g>
    <g id="eyes-2">
      <path class="st4" d="M358.8,458.6c37.2,0,72.1,4.8,102.7,13.3,14-18.5,22.3-41.5,22.3-66.5,0-60.9-49.4-110.3-110.3-110.3s-110.3,49.4-110.3,110.3,6.7,43.2,18.1,60.6c24.1-4.8,50.3-7.4,77.6-7.4Z"/>
      <path class="st4" d="M666.6,458.6c-37.2,0-72.1,4.8-102.7,13.3-14-18.5-22.3-41.5-22.3-66.5,0-60.9,49.4-110.3,110.3-110.3s110.3,49.4,110.3,110.3-6.7,43.2-18.1,60.6c-24.1-4.8-50.3-7.4-77.6-7.4Z"/>
      <circle cx="391.3" cy="405.4" r="37.1"/>
      <circle class="st4" cx="402" cy="390.8" r="10.1"/>
      <circle cx="633.7" cy="405.4" r="37.1"/>
      <circle class="st4" cx="644.4" cy="390.8" r="10.1"/>
    </g>
    <g id="eyes-3">
      <path class="st4" d="M379.5,460.2c35.7-10.2,70.7-15.3,102.3-15.5,8.3-21.6,10-46,3.1-70-16.8-58.6-77.9-92.4-136.5-75.6-58.6,16.8-92.4,77.9-75.6,136.5,6.2,21.5,18.3,39.7,34.1,53.2,21.8-11.2,46.3-20.9,72.6-28.5Z"/>
      <circle cx="373" cy="387.1" r="36.6"/>
      <circle class="st4" cx="383.6" cy="372.6" r="10"/>
      <path class="st10" d="M1083.5,422.5c-45.6.5-192.2-8.4-244.4-21.1-.4,0-.8-.2-1.2-.3,13.6-55.6-34.8-80.8-95.8-105.5-60.8-24.5-112.9-40-141.8,8.6-134.6-41.5-227.3-219.8-232-351.7h-16.5c-2.9,164.2,111.3,325.4,241.2,366.6,0,0,0,0,0,0-26.8,66.3,6.7,138.1,73,164.9,66.1,26.7,139.7-1.5,166.8-67.2.8.2,1.6.4,2.5.6,51.4,12.5,197.5,21.6,242.9,21.6,1.9,0,3.7,0,5.6,0l-.2-16.5Z"/>
    </g>
    <g id="eyes-4">
      <circle class="st4" cx="373" cy="405.4" r="109.9"/>
      <circle cx="436.2" cy="412.7" r="37.1"/>
      <circle class="st4" cx="454.3" cy="405.4" r="10.1"/>
      <circle class="st4" cx="650.8" cy="404.5" r="109.9"/>
      <circle cx="713.4" cy="412.7" r="37.1"/>
      <circle class="st4" cx="732.4" cy="405.4" r="10.1"/>
      <g>
        <path class="st7" d="M482.5,397.7c-3.5-57.6-51.3-103.2-109.7-103.2s-94.1,34.9-106.4,82.2c44.7,11,144.1,22.6,216.1,20.9Z"/>
        <path class="st7" d="M268.2,438.5c14.1,44.6,56,76.9,105.4,76.9s82-25.6,99.8-62.6c-49-12.4-143.5-20-205.2-14.2Z"/>
        <path class="st7" d="M541,397.7c3.5-57.6,51.3-103.2,109.7-103.2s94.1,34.9,106.4,82.2c-44.7,11-144.1,22.6-216.1,20.9Z"/>
        <path class="st7" d="M755.6,437.6c-14.1,44.5-55.7,76.8-104.8,76.8s-81.5-25.6-99.2-62.6c48.7-12.4,142.8-20,204.1-14.2Z"/>
      </g>
    </g>
    <g id="eyes-5">
      <path d="M459.1,444.6c-16.3-11.2-89.9-81.3-201.3,3.4,15.1-27.8,68.9-90.8,149.6-60-13.2-16.2-43.3-31-99.3-30,87-39.5,158.9,43.9,151,86.6Z"/>
      <path d="M569.5,444.6c16.3-11.2,89.9-81.3,201.3,3.4-15.1-27.8-68.9-90.8-149.6-60,13.2-16.2,43.3-31,99.3-30-87-39.5-158.9,43.9-151,86.6Z"/>
      <path class="st10" d="M410.9,401.9"/>
    </g>
    <g id="eyes-6">
      <circle class="st4" cx="373.2" cy="404.4" r="109.9"/>
      <circle cx="386.2" cy="407.7" r="38.3"/>
      <path class="st7" d="M360,435.5c-35.5,0-64.7,7.4-84.8,18.9,18.2,35.6,55.2,60,98,60s75.6-21.7,94.7-54.1c-26.1-14.8-66.6-24.8-107.9-24.8Z"/>
      <path class="st9" d="M300.2,513.2c16.9,10.1,78.7,67,155.1-7.8-71.1,55-118.3,24.2-155.1,7.8Z"/>
      <circle class="st4" cx="651.2" cy="404.4" r="109.9"/>
      <circle cx="638.1" cy="407.7" r="38.3"/>
      <path class="st7" d="M664.3,435.5c35.5,0,64.7,7.4,84.8,18.9-18.2,35.6-55.2,60-98,60s-75.6-21.7-94.7-54.1c26.1-14.8,66.6-24.8,107.9-24.8Z"/>
      <path class="st9" d="M725.2,513.2c-16.9,10.1-78.7,67-155.1-7.8,72,53.9,119.1,24.2,155.1,7.8Z"/>
      <circle class="st4" cx="402.1" cy="398.6" r="10.9"/>
      <circle class="st4" cx="652.8" cy="398.6" r="10.9"/>
    </g>
    <g id="eyes-7">
      <circle class="st4" cx="373.2" cy="404.7" r="107.6"/>
      <circle cx="424.9" cy="418.7" r="37.5"/>
      <path class="st7" d="M277.2,453.6c17.8,34.9,54.1,58.7,95.9,58.7s74-21.3,92.7-53c-25.5-14.5-169-17-188.6-5.8Z"/>
      <path class="st7" d="M277.2,355.8c17.8-34.9,54.1-58.7,95.9-58.7s74,21.3,92.7,53c-25.5,14.5-169,17-188.6,5.8Z"/>
      <path class="st9" d="M301.7,514c16.5,9.9,77.1,65.6,151.9-7.6-69.6,53.8-115.9,23.7-151.9,7.6Z"/>
      <circle class="st4" cx="651.2" cy="404.3" r="110.9"/>
      <circle cx="596.6" cy="391.7" r="38.6"/>
      <path class="st9" d="M725.9,514c-17,10.2-79.4,67.6-156.4-7.8,72.6,54.4,120.1,24.4,156.4,7.8Z"/>
      <circle class="st4" cx="440.5" cy="409.8" r="10.7"/>
      <circle class="st4" cx="611.4" cy="382.6" r="11"/>
    </g>
    <g id="eyes-8">
      <circle class="st4" cx="373" cy="405.4" r="109.9"/>
      <circle cx="380.3" cy="405.4" r="37.1"/>
      <circle class="st4" cx="391" cy="390.8" r="10.1"/>
      <path d="M569.5,444.6c16.3-11.2,89.9-81.3,201.3,3.4-15.1-27.8-68.9-90.8-149.6-60,13.2-16.2,43.3-31,99.3-30-87-39.5-158.9,43.9-151,86.6Z"/>
    </g>
    <g id="eyes-9">
      <path class="st4" d="M308.4,494.4c17.3-2.1,35.3-3.3,53.8-3.3s48.9,2.1,71.6,5.9c29.6-19.7,49.1-53.4,49.1-91.6,0-60.7-49.2-109.9-109.9-109.9s-109.9,49.2-109.9,109.9,17.9,69,45.4,89Z"/>
      <path class="st4" d="M715.3,494.4c-17.3-2.1-35.3-3.3-53.8-3.3s-48.9,2.1-71.6,5.9c-29.6-19.7-49.1-53.4-49.1-91.6,0-60.7,49.2-109.9,109.9-109.9s109.9,49.2,109.9,109.9-17.9,69-45.4,89Z"/>
      <circle cx="373" cy="423.7" r="37.1"/>
      <circle class="st4" cx="383.7" cy="409.1" r="10.1"/>
      <circle cx="650.2" cy="423.7" r="37.1"/>
      <circle class="st4" cx="660.9" cy="409.1" r="10.1"/>
      <path class="st7" d="M373,295.5c-60.7,0-109.9,49.2-109.9,109.9s0,2.5,0,3.7h219.7c0-1.2,0-2.5,0-3.7,0-60.7-49.2-109.9-109.9-109.9Z"/>
      <path class="st7" d="M650.8,295.5c60.7,0,109.9,49.2,109.9,109.9s0,2.5,0,3.7h-219.7c0-1.2,0-2.5,0-3.7,0-60.7,49.2-109.9,109.9-109.9Z"/>
    </g>
    <g id="eyes-10">
      <path d="M751.5,392.9c-70.1,50.9-125,51.4-201.5-5.9,46.1,102.6,176.3,82.3,201.5,5.9Z"/>
      <path d="M272.2,392.9c70.1,50.9,125,51.4,201.5-5.9-46.1,102.6-176.3,82.3-201.5,5.9Z"/>
      <path class="st8" d="M704.6,497.4c-12,7.2-55.8,47.5-110-5.5,51,38.3,84.5,17.2,110,5.5Z"/>
      <path class="st8" d="M312.1,497.4c12,7.2,55.8,47.5,110-5.5-51,38.3-84.5,17.2-110,5.5Z"/>
    </g>
    <g id="eyes-11">
      <circle class="st4" cx="373" cy="405.4" r="109.9"/>
      <circle cx="373" cy="362.4" r="37.1"/>
      <circle class="st4" cx="383.7" cy="347.8" r="10.1"/>
      <circle class="st4" cx="650.2" cy="405.4" r="109.9"/>
      <circle cx="650.2" cy="362.4" r="37.1"/>
      <circle class="st4" cx="660.9" cy="347.8" r="10.1"/>
      <path class="st8" d="M713.1,516.4c-14.5,7.2-67.5,47.5-133-5.5,61.7,38.3,102.1,17.2,133,5.5Z"/>
      <path class="st8" d="M308.1,516.4c14.5,7.2,67.5,47.5,133-5.5-61.7,38.3-102.1,17.2-133,5.5Z"/>
      <path class="st7" d="M274,456.3c18.4,35.6,55.9,60,99.2,60s76.5-21.7,95.8-54.1c-28.3,45.2-175.5,43.1-195-5.9Z"/>
      <path class="st7" d="M749.8,456.3c-18.3,35.6-55.6,60-98.6,60s-76.1-21.7-95.4-54.1c21.4,50.2,169.5,46.8,194-5.9Z"/>
    </g>
    <g id="eyes-12">
      <g>
        <path class="st11" d="M316.7,450.4c0-3.9-1.8-7.5-5-9.8l-57.7-40.8,67.5-21c3.7-1.2,6.6-4.1,7.8-7.8l21-67.5,40.8,57.7c2.2,3.1,5.8,5,9.6,5l70.8-.9-42.3,56.6c-2.3,3.1-3,7.2-1.7,10.8l22.7,66.9-66.9-22.7c-1.2-.4-2.5-.6-3.8-.6-2.5,0-5,.8-7.1,2.3l-56.6,42.3.9-70.6Z"/>
        <path d="M352.9,320.3l32,45.3c3.6,5.1,9.5,8.2,15.8,8.2h.2s55.5-.7,55.5-.7l-33.2,44.4c-3.8,5.1-4.8,11.7-2.8,17.7l17.8,52.5-52.5-17.8c-2-.7-4.1-1-6.2-1-4.1,0-8.2,1.4-11.5,3.8l-44.4,33.2.7-55.4c0-6.4-3-12.3-8.2-16l-45.3-32,53-16.5c6.1-1.9,10.8-6.6,12.7-12.7l16.5-53M349.2,292.1c-1.8,0-3.5,1.1-4.1,3l-22.9,73.7c-.4,1.3-1.5,2.4-2.8,2.8l-73.7,22.9c-3.4,1.1-4.1,5.5-1.2,7.6l63,44.5c1.2.8,1.8,2.1,1.8,3.6l-1,77.1c0,2.6,2.1,4.4,4.3,4.4s1.8-.3,2.5-.9l61.8-46.1c.8-.6,1.7-.9,2.6-.9.5,0,.9,0,1.4.2l73.1,24.8c.5.2.9.2,1.4.2,2.8,0,5-2.8,4-5.7l-24.8-73.1c-.5-1.3-.2-2.8.6-3.9l46.1-61.8c2.1-2.8,0-6.9-3.4-6.9s0,0,0,0l-77.1,1s0,0,0,0c-1.4,0-2.7-.7-3.5-1.8l-44.5-63c-.9-1.2-2.2-1.8-3.5-1.8h0Z"/>
      </g>
      <g>
        <path class="st11" d="M651.5,478.8c-2-1.5-4.5-2.3-7.1-2.3s-2.6.2-3.8.6l-66.9,22.7,22.7-66.9c1.2-3.7.6-7.7-1.7-10.8l-42.3-56.6,70.8.9c3.8,0,7.4-1.9,9.6-5l40.8-57.7,21,67.5c1.2,3.7,4.1,6.6,7.8,7.8l67.5,21-57.7,40.8c-3.2,2.2-5,5.9-5,9.8l.9,70.6-56.6-42.3Z"/>
        <path d="M671.1,320.3l16.5,53c1.9,6.1,6.6,10.8,12.7,12.7l53,16.5-45.3,32c-5.2,3.7-8.2,9.6-8.2,16l.7,55.4-44.4-33.2c-3.3-2.5-7.4-3.8-11.5-3.8s-4.2.3-6.2,1l-52.5,17.8,17.8-52.5c2-6,1-12.6-2.8-17.7l-33.2-44.4,55.4.7h.3c6.3,0,12.1-3,15.8-8.2l32-45.3M674.8,292.1c-1.3,0-2.6.6-3.5,1.8l-44.5,63c-.8,1.1-2.1,1.8-3.5,1.8s0,0,0,0l-77.1-1s0,0,0,0c-3.5,0-5.6,4-3.4,6.9l46.1,61.8c.8,1.1,1.1,2.6.6,3.9l-24.8,73.1c-1,2.9,1.3,5.7,4,5.7s.9,0,1.4-.2l73.1-24.8c.4-.2.9-.2,1.4-.2.9,0,1.8.3,2.6.9l61.8,46.1c.8.6,1.7.9,2.5.9,2.2,0,4.3-1.8,4.3-4.4l-1-77.1c0-1.4.7-2.7,1.8-3.6l63-44.5c2.9-2.1,2.2-6.5-1.2-7.6l-73.7-22.9c-1.3-.4-2.4-1.5-2.8-2.8l-22.9-73.7c-.6-2-2.4-3-4.1-3h0Z"/>
      </g>
      <polygon class="st2" points="356.4 342.1 385.1 387.4 439.9 381.4 368.4 411.3 356.4 342.1"/>
      <polygon class="st2" points="740.8 404.2 682.6 393.8 668.4 335.6 657.2 411.9 740.8 404.2"/>
    </g>
    <g id="eyes-13">
      <path d="M820.4,328.1c0-5.9-4.4-9-9.7-9.1-25-4.6-50.2-7.5-76-9.8-56.6-5-104.5-2-159.5,12.1l-27.1,7s-63,.7-65,.1c-56.8-16.2-102.3-23.9-161.8-20.9-35,1.8-69.2,5.8-103.6,11.7-3.7.6-6.5,3.6-6.6,7.2-.5,10.1-.5,19.7-.4,29.8,0,11.5,13.7,4.4,20,21,2.1,5.5,3.1,10.9,4.1,16.7,2.6,15.1,4.9,29.7,8.6,44.4,7.1,28.3,18.6,54.7,46.7,68.1,33.1,15.6,75,15.9,109,5.3,23.5-7.4,43.4-21.5,57.7-41.7,17.8-25.1,31.4-59.7,40.2-89,6.2-23.4,29.7-23.6,36.7-2.2,3.1,11.9,28,74.3,43,94.1,25.3,33.5,64.1,45.9,105,46,31.9,0,68.5-8.5,87-36.1,4.2-6.2,8.2-11.9,11-19.1,9.4-25.1,12.1-42.6,16.5-68.9,2.1-12.9,4.7-26.3,17.7-30.2,3.2-1,6.6-3.5,6.6-7.4v-29.1Z"/>
      <path class="st4" d="M227.7,343.1c7.2,5.2,17.6,1.6,17.7-2.4.1-5.2-10.4-8.1-17.5-3.2-1.9,1.3-2.1,4.2-.1,5.6Z"/>
      <path class="st1" d="M273.4,476.7c5.2,7.7,14.1,13.6,22.4,18.2,10.3,5.7,20.5,8.6,32,10.4,33.9,5.3,74.5,0,100.3-23.2,1.4-1.3,2.3-3.3,4.1-3.3,7.3-8.8,14.6-17.1,20.3-27.6,11.7-21.9,22.5-53.9,20-78.6-2.6-26.9-26.3-36.8-49.8-42.3-36.2-8.5-73.2-10.4-110.1-5.3-13.4,1.9-25.5,4.6-37.8,9.6-13.5,5.5-22.5,16-24.6,30.6-1.6,11.4-1.4,22.5-.4,34,2.4,27,8.5,55.4,23.5,77.6Z"/>
      <path class="st11" d="M468.9,369.6c-4.1-22.1-24-30.1-44.1-35-17.3-4.2-34.6-7.1-52.1-7.6-23.5-2.1-47.5-.7-70.6,3.7-9.9,1.9-19.9,4.3-29.5,9.1-15.8,8-19.7,21.8-20.3,38.4-.9,27.3,4.7,62.3,17.7,86.4,5.9,10.9,14.1,19.8,24.9,26.1,28.7,16.8,71.4,16.7,101.9,5.7,17.9-6.4,33.6-18,43.7-33.5,17.8-20.7,33.1-67.6,28.4-93.3Z"/>
      <path class="st3" d="M445.3,388.3c1.7,2.9,5.8,7.8,8.8,6.4.9-.4,2.1-1.1,2.8-2.9,3.7-10.3,3.2-21.7.3-32-2.5-9-21.7-14.3-30-15.5-2.7-.4-4.7,1-6,3.4-3.1,5.7-1.1,11.8,3.7,16.1,8.1,7.4,14.9,15.1,20.4,24.5Z"/>
      <path class="st4" d="M786.1,341.6c4.8,7.8,21.4,2.4,18.8-1.9-2.5-4.2-6.7-4.6-11.7-4.5-2.7,0-9.2,3.1-7.1,6.5Z"/>
      <path class="st1" d="M585.3,462.9c24.9,33.9,60.9,45.3,102.9,44.3,2.5,0,4.5-.6,6.5-.8,26.7-2.3,52.2-12.6,66.8-37,14.5-24.2,19.7-60,20.4-87.6.6-20.4-4-37.8-24.2-46.6-43.2-18.8-120.9-15.6-165.2-.2-17.6,6.1-31,16.2-33.8,35.7-1.3,9.1-.3,17.7,1.2,27,3.9,24,13.4,45.1,25.3,65.3Z"/>
      <path class="st11" d="M757.1,339c-7.3-3.4-14.6-5.6-22.6-7.4-26.4-6-53.1-6.8-79.5-4.3-16.9,1.6-33.7,2.5-49.4,7.9-21,4.3-41.3,14.4-43.8,37.6-2.7,24.3,8.6,57.8,20.7,79,11.1,19.6,27.3,34.7,48.7,43.1,33.5,13.1,80.3,13.3,109.3-7.4,5.7-4.1,10.9-8.7,15-14.8,7.2-10.5,12.8-22.2,15-34.4,4.9-16.8,7.8-34.3,8.3-52.2.5-19.3-2.4-38.2-21.5-47.1Z"/>
      <path class="st3" d="M763.7,415.7c1.7-7.4,1.5-15.4,2.6-23.2,1.5-10.4,5.5-35.9-5.7-41.9-7.5-4-15.5-6.6-23.8-7.9-3.3-.5-5.6,1-7.1,3.7-3,5.5-1.5,11.8,3,16.2,9.4,9.3,18,19.2,24.1,31.5,3.3,6.7,3.8,14,6.9,21.5Z"/>
    </g>
    <g id="eyes-14">
      <circle class="st4" cx="373" cy="405.4" r="120"/>
      <circle class="st4" cx="650.2" cy="405.4" r="120"/>
      <circle cx="650.2" cy="405.4" r="50"/>
      <circle cx="373" cy="405.4" r="50"/>
      <circle class="st4" cx="631.5" cy="423.9" r="7.5"/>
      <circle class="st4" cx="359" cy="422.9" r="7.5"/>
      <circle class="st4" cx="664.6" cy="385.7" r="15"/>
      <circle class="st4" cx="387.5" cy="385.7" r="15"/>
    </g>
    <g id="eyes-15">
      <circle class="st4" cx="373" cy="405.4" r="109.9"/>
      <circle cx="342" cy="372.4" r="37.1"/>
      <circle class="st4" cx="352.7" cy="357.8" r="10.1"/>
      <circle class="st4" cx="650.2" cy="405.4" r="109.9"/>
      <circle cx="619.2" cy="372.4" r="37.1"/>
      <circle class="st4" cx="629.9" cy="357.8" r="10.1"/>
      <path class="st8" d="M771.8,490.2c-12,17.3-33.7,53.3-94.5,54.7,52.9-1,83.9-39.1,94.5-54.7Z"/>
      <path class="st8" d="M256.5,490.2c12.3,18,34,54.4,94.5,54.7-52.9-1-83.9-39.1-94.5-54.7Z"/>
      <g>
        <path class="st7" d="M588.4,496.3c17.6,12,38.9,19,61.8,19s48.9-8.6,67.5-23.2c-37.8,8.5-81.8,8.7-129.3,4.2Z"/>
        <path class="st7" d="M718,318.9c-18.7-14.7-42.3-23.5-67.9-23.5s-44.8,7.2-62.6,19.6c46.2-2.9,90.1-2.2,130.5,3.9Z"/>
      </g>
      <g>
        <path class="st7" d="M434.4,496.3c-17.6,12-38.9,19-61.8,19s-48.9-8.6-67.5-23.2c37.8,8.5,81.8,8.7,129.3,4.2Z"/>
        <path class="st7" d="M304.7,318.9c18.7-14.7,42.3-23.5,67.9-23.5s44.8,7.2,62.6,19.6c-46.2-2.9-90.1-2.2-130.5,3.9Z"/>
      </g>
    </g>
    <g id="eyes-16">
      <circle class="st4" cx="372.7" cy="406.4" r="110" transform="translate(-49.7 51.9) rotate(-7.5)"/>
      <circle cx="411.1" cy="418.4" r="39.6"/>
      <path class="st7" d="M270.3,446.7c15.4,40.1,55,69.4,102.4,69.7,36,.3,71.4-18.6,90.3-47.1-49.8,4.3-133.2,0-192.7-22.6Z"/>
      <path class="st7" d="M482.7,407.9c3.1-29-22.4-111.4-110-111.4-35.7.2-67.4,17-87.5,43.3,36,18.9,106.4,47,197.5,68.1Z"/>
      <circle class="st4" cx="429.9" cy="405.4" r="10.5"/>
      <circle class="st4" cx="650.9" cy="406.4" r="110" transform="translate(163.2 998.9) rotate(-82.5)"/>
      <circle cx="612.4" cy="418.4" r="39.6"/>
      <path class="st7" d="M753.3,446.7c-15.4,40.1-55,69.4-102.4,69.7-36,.3-71.4-18.6-90.3-47.1,49.8,4.3,133.2,0,192.7-22.6Z"/>
      <path class="st7" d="M540.9,407.9c-3.1-29,22.4-111.4,110-111.4,35.7.2,67.4,17,87.5,43.3-36,18.9-106.4,47-197.5,68.1Z"/>
      <circle class="st4" cx="630.2" cy="398.7" r="10.5"/>
    </g>
    <g id="eyes-17">
      <path class="st4" d="M306,493.1c22.2-8.3,48.8-14.6,77.3-17.5,26.9-2.8,52.2-1.9,73.8,1.9,16.4-19.2,26.3-44.2,26.3-71.4s-19.5-71.9-49.1-91.6c-18.7,17.6-44.4,35.4-74.4,50.5-34.6,17.4-68.7,28.1-96.3,31.5-.3,3.2-.4,6.4-.4,9.7,0,35.5,16.8,67,42.8,87.1Z"/>
      <path d="M447.6,411.8c0-32.9-24.1-60.2-55.6-65.2-10,6.4-20.8,12.5-32.2,18.2-12.4,6.2-24.7,11.6-36.7,16.1-4.9,9.2-7.7,19.7-7.7,30.9,0,32.9,24.1,60.2,55.7,65.2,4-.6,8-1.1,12.1-1.5,6.9-.7,13.6-1.2,20.3-1.4,25.7-9,44.1-33.5,44.1-62.3Z"/>
      <circle class="st4" cx="359.6" cy="427.1" r="14.7"/>
      <circle class="st4" cx="404.7" cy="388.4" r="22.6"/>
      <path class="st4" d="M718,493.1c-22.2-8.3-48.8-14.6-77.3-17.5-26.9-2.8-52.2-1.9-73.8,1.9-16.4-19.2-26.3-44.2-26.3-71.4s19.5-71.9,49.1-91.6c18.7,17.6,44.4,35.4,74.4,50.5,34.6,17.4,68.7,28.1,96.3,31.5.3,3.2.4,6.4.4,9.7,0,35.5-16.8,67-42.8,87.1Z"/>
      <path d="M576.4,411.8c0-32.9,24.1-60.2,55.6-65.2,10,6.4,20.8,12.5,32.2,18.2,12.4,6.2,24.7,11.6,36.7,16.1,4.9,9.2,7.7,19.7,7.7,30.9,0,32.9-24.1,60.2-55.7,65.2-4-.6-8-1.1-12.1-1.5-6.9-.7-13.6-1.2-20.3-1.4-25.7-9-44.1-33.5-44.1-62.3Z"/>
      <circle class="st4" cx="620.5" cy="427.1" r="14.7"/>
      <circle class="st4" cx="663.3" cy="392.9" r="22.6"/>
    </g>
    <g id="eyes-18">
      <circle class="st4" cx="373" cy="405.4" r="109.9"/>
      <circle class="st4" cx="650.2" cy="405.4" r="109.9"/>
      <circle cx="373" cy="458.7" r="37.1"/>
      <circle class="st4" cx="383.7" cy="454.1" r="10.1"/>
      <circle cx="650.2" cy="458.7" r="37.1"/>
      <circle class="st4" cx="660.9" cy="454.1" r="10.1"/>
      <path class="st7" d="M373,295.5c-60.7,0-109.9,49.2-109.9,109.9s3.7,32.5,10.4,46.7c63.7,6.9,130.3,6.4,199.1,0,6.7-14.2,10.4-30,10.4-46.7,0-60.7-49.2-109.9-109.9-109.9Z"/>
      <path class="st7" d="M650.2,295.5c-60.7,0-109.9,49.2-109.9,109.9s3.7,32.5,10.4,46.7c69.7,6.8,135.9,6.5,199.1,0,6.7-14.2,10.4-30,10.4-46.7,0-60.7-49.2-109.9-109.9-109.9Z"/>
      <path class="st8" d="M713.1,518.4c-14.9,20.5-68,68.9-133-5.5,63.1,45.3,103.3,23.2,133,5.5Z"/>
      <path class="st8" d="M308.1,518.4c14.5,19.5,67.5,67.8,133-5.5-59.7,44.6-100.3,23-133,5.5Z"/>
    </g>
  </g>
  <g id="eyebrows">
    <g id="eyebrows-1">
      <path d="M770.5,280.3c-86.3-37-169.4,68.2-210.3,63-21.3-2.8-31.5-15.5-22.4-45,35.8,41.8,131.8-112.2,232.6-17.9Z"/>
      <path class="st9" d="M531.5,290.3c-12.2,5.1-29,48.1,12.6,63.5-33.3-21.1-20.9-50.4-12.6-63.5Z"/>
      <path d="M254.6,280.3c86.3-37,169.4,68.2,210.3,63,21.3-2.8,31.5-15.5,22.4-45-35.8,41.8-131.8-112.2-232.6-17.9Z"/>
      <path class="st9" d="M493.6,290.3c12.2,5.1,29,48.1-12.6,63.5,33.3-21.1,20.9-50.4,12.6-63.5Z"/>
    </g>
    <g id="eyebrows-2">
      <path d="M594.3,217.9c38.2-10.4,152.3,4.7,193.3,53.6-47.7-93-170.5-72.3-193.3-53.6Z"/>
      <path d="M440.5,217.9c-38.2-10.4-152.3,4.7-193.3,53.6,47.7-93,170.5-72.3,193.3-53.6Z"/>
    </g>
    <g id="eyebrows-3">
      <path d="M256.2,310.2c63.3-7.1,104.8-6.5,138.3,6.7,38.3,15.1,61.9,36.7,79.1,33.4,21.5-4.1,39.3-23.4,26.4-42.3,1.7,46.6-118.5-78.1-243.8,2.2Z"/>
      <path d="M549,283.4c7.6-10.2,63.2-84.8,210.1-49.4-33.9-23.1-50.9-31.9-117.3-31.9-65.4,0-103.5,35.2-109.9,51.3-6.3,15.7,9.5,38.3,17.1,30Z"/>
    </g>
    <g id="eyebrows-4">
      <path d="M562,266.7c11.3-7.1,88.6-51.6,208.4,20.7-23.6-29.9-36.4-42.6-97.3-62.5-60-19.6-106.2-.9-117.2,11-10.8,11.6-3.6,35.6,6,30.9Z"/>
      <path d="M468.4,266.7c-11.3-7.1-88.6-51.6-208.4,20.7,23.6-29.9,36.4-42.6,97.3-62.5,60-19.6,106.2-.9,117.2,11,10.8,11.6,3.6,35.6-6,30.9Z"/>
    </g>
    <g id="eyebrows-5">
      <path class="st8" d="M573.9,192.1c-11.5,4.1-28.5,41.4,9.8,56.3-30.4-19.6-17.9-45-9.8-56.3Z"/>
      <path d="M596.3,197c7.6,11.7,63.7,50.9,183.5,46.7-17.5,25.4-31.2,29.7-96.1,24.3-64.3-5.4-100.7-32.5-104.1-49.7-3.4-16.9,9.6-29.9,16.7-21.3Z"/>
      <path d="M427.2,197c-7.6,11.7-63.7,50.9-183.5,46.7,17.5,25.4,31.2,29.7,96.1,24.3,64.3-5.4,100.7-32.5,104.1-49.7,3.4-16.9-9.6-29.9-16.7-21.3Z"/>
      <path class="st8" d="M449.6,192.1c11.5,4.1,28.5,41.4-9.8,56.3,30.4-19.6,17.9-45,9.8-56.3Z"/>
    </g>
    <g id="eyebrows-6">
      <path d="M560.7,232.3c38.5-20.3,159.9-20.9,209.7,26.8-71.8-98.6-194.4-57.1-209.7-26.8Z"/>
      <path d="M473.4,253.5c-37.6-21.9-158.8-27.9-210.7,17.5,76.1-95.3,196.7-48.5,210.7-17.5Z"/>
    </g>
    <g id="eyebrows-7">
      <path d="M475.1,243c-30.2-24.4-165.1-31.5-219.8,13.4,81.1-79,210.8-39,219.8-13.4Z"/>
      <path d="M548.9,243c30.2-24.4,165.1-31.5,219.8,13.4-81.1-79-210.8-39-219.8-13.4Z"/>
    </g>
    <g id="eyebrows-8">
      <path d="M591.7,213.2c-11,5.1-9.4,42.1-5.2,45.2,11.7,8.6,108.9-4.5,191,35.3,3.1,1.5,1.8-28.6-41.2-51.7-43-23-121.2-39.7-144.6-28.9Z"/>
      <path d="M432.3,213.2c11,5.1,9.4,42.1,5.2,45.2-11.7,8.6-108.9-4.5-191,35.3-3.1,1.5-1.8-28.6,41.2-51.7,43-23,121.2-39.7,144.6-28.9Z"/>
    </g>
    <g id="eyebrows-9">
      <path d="M568.9,215c18.9-57.8,152-50.1,219.8,33.4-94-138.3-219.3-98.6-219.8-33.4Z"/>
      <path d="M463,215c-18.9-57.8-152-50.1-219.8,33.4,94-138.3,219.3-98.6,219.8-33.4Z"/>
    </g>
    <g id="eyebrows-10">
      <path d="M541.6,271.7c8.2-22.7,17.8-36.2,53.9-39.7,65.8-6.4,132.6,18,176.5,64.5-7.9-26.2-13.9-36.4-40-52.5-40.2-24.8-120.7-38.9-151-31.6-31.6,7.6-39.3,34.8-39.5,59.3Z"/>
      <path d="M482.4,271.7c-8.2-22.7-17.8-36.2-53.9-39.7-65.8-6.4-132.6,18-176.5,64.5,7.9-26.2,13.9-36.4,40-52.5,40.2-24.8,120.7-38.9,151-31.6,31.6,7.6,39.3,34.8,39.5,59.3Z"/>
    </g>
  </g>
  <g id="noses">
    <path id="nose-1" class="st8" d="M495.8,478.3c-12,9.6-45.1,71.9-29.7,91.7,16.1,20.8,32.5,21.5,65.3,14.7,30.6-6.3,38.8-20.4,36.3-28.8-2.5-8.3-6.5-9.5-12.2-9.2,10.7,5.5,4.9,21.8-22.3,27.8-25.9,5.7-43,7.3-55.7-9.1s2.4-52.1,18.5-87.1Z"/>
    <path id="nose-2" class="st8" d="M460.2,562.6c24.8,19.5,58.8,43.9,109.9,0-54.7,14.6-64,15.6-109.9,0Z"/>
    <path id="nose-3" class="st8" d="M465.3,523.6s-19.8,19.5-14.3,33.8c5.3,13.8,25,5.3,28.8,7,3.8,1.7,12.1,20.4,33.5,20.4s24.7-17.5,29.6-19.9c4.9-2.4,18.1,6.4,27.2-3.5,10-11.4-11.1-36.7-11.1-36.7,0,0,36.5,22.3,16.6,44.8-8.1,9.2-28.1,3.8-28.1,3.8,0,0-12.8,22.6-34.2,22.6s-36.4-21.3-36.4-21.3c0,0-20.7,8.1-33.6-8.1-12.9-16.2,22-42.9,22-42.9Z"/>
    <path id="nose-4" class="st8" d="M454.7,524.5c.3,77,119.8,72.4,113.6,0,27.5,83.7-137.7,87.3-113.6,0Z"/>
    <path id="nose-5" class="st8" d="M450.1,561.4c33.3,49.6,89.5,49.2,130,0-55.3,32.4-87.3,34.2-130,0Z"/>
  </g>
</svg>