<?xml version="1.0" encoding="UTF-8"?>
<svg id="Layer_1" xmlns="http://www.w3.org/2000/svg" version="1.1" viewBox="0 0 1024 1024">
  <defs>
    <style>
      .st0 {fill: #d14900; fill-rule: evenodd;}
      .st1 {fill: #fff;}
    </style>
  </defs>
  <path class="st0" d="M1024,512c0,411.2-100.8,512-512,512S0,923.2,0,512,100.8,0,512,0s512,100.8,512,512Z"/>
  <path class="st1" d="M158.1,682c-2.2,0-3.8-.7-4.9-2.2-1-1.4-1.5-4.7-1.5-9.9v-344.2c0-5.1.5-8.4,1.5-9.9,1-1.4,2.6-2.2,4.9-2.2h37.6c2.2,0,3.8.7,4.9,2.2,1,1.5,1.5,4.7,1.5,9.9v309.9c0,3.8,1.2,5.6,3.6,5.6h66.6c2.2,0,3.8.6,4.9,1.8,1,1.2,1.5,3.9,1.5,8.2v20.5c0,4.3-.5,7-1.5,8.3s-2.6,1.9-4.9,1.9h-114.2Z"/>
  <path class="st1" d="M364.7,685.8c-14.2,0-26.2-1.5-36-4.6-9.8-3.1-18.7-8.7-26.8-16.8-8-8.1-14.3-19.3-19-33.7-4.6-14.3-8.2-32.5-10.6-54.4-2.5-21.9-3.7-48.7-3.7-80.3s.8-47.5,2.4-66.6c1.6-19.1,4.3-35.6,7.9-49.4,3.7-13.8,8-25.3,12.9-34.3,5-9,11.2-16.3,18.7-21.6,7.5-5.4,15.5-9.1,24.1-11.3,8.5-2.1,18.5-3.2,30-3.2s25.7,1.6,35.5,4.7c9.8,3.2,18.7,8.8,26.8,16.8,8,8,14.4,19.1,19.2,33.2,4.8,14.1,8.4,31.9,10.9,53.5,2.5,21.6,3.7,47.7,3.7,78.2s-1.2,58.7-3.6,80.7c-2.4,22-5.9,40.2-10.5,54.6-4.6,14.3-10.9,25.5-19,33.4-8,7.9-16.9,13.4-26.8,16.5-9.8,3.1-21.9,4.6-36.2,4.6ZM364.5,645.4c11.9,0,21.1-4.1,27.4-12.2,6.3-8.1,10.9-22.8,13.8-44.1,2.9-21.3,4.4-52.3,4.4-93.1s-1.4-69.3-4.1-89.6c-2.7-20.3-7.2-34.6-13.4-42.9-6.2-8.3-15.5-12.4-27.8-12.4s-21.1,4.2-27.5,12.7-11,22.9-13.7,43.4c-2.7,20.5-4.1,50.1-4.1,88.9s1.4,71.3,4.4,92.6c2.9,21.3,7.5,36,13.7,44.3,6.2,8.3,15.2,12.4,27,12.4Z"/>
  <path class="st1" d="M458,682c-2.6,0-3.8-2.5-3.8-7.4v-4.4c0-2.2,0-3.7.3-4.4l57.6-339.4c1.4-8.2,4.5-12.5,9.5-12.8h52c4.8.3,7.9,4.6,9.2,12.8l56.6,339.4c0,.5.1,1.5.4,2.8.3,1.4.4,2.6.5,3.6,0,1,.1,1.9.1,2.6,0,4.8-1.5,7.2-4.4,7.2h-42.3c-4.1,0-6.7-3.5-7.9-10.5l-9.5-65.3c-.5-3.8-1.5-5.6-2.8-5.6h-62c-1.2,0-2.1,2-2.8,5.9l-10.8,64.8c-.7,4.3-1.5,7.1-2.6,8.6-1,1.5-2.6,2.2-4.6,2.2h-32.8ZM518.9,568.5h52.2c1.2,0,1.8-1.5,1.8-4.6s-.2-1.8-.5-2.3l-25.4-197.5c-.2-1.2-.4-1.8-.8-1.8-.5,0-.9.5-1,1.5l-30,197.5c-.2,1.2-.3,2-.3,2.3,0,3.2,1.3,4.9,3.8,4.9Z"/>
  <path class="st1" d="M655.9,682c-4.1,0-6.1-4.2-6.1-12.5v-1.3l11.5-339.9c.2-9.4,2.3-14.3,6.4-14.6h40.5c2.6.2,4.7,1,6.4,2.6,1.7,1.5,3,4.7,3.8,9.5l43.3,242.3c.2.7.5,1.2.9,1.5.4.3.9.3,1.3,0,.4-.3.6-.9.6-1.5l43.5-241.5c1.5-8.2,4.9-12.5,10-12.8h41c4.1.3,6.1,5.2,6.1,14.6l12,339.9v1.5c0,8.2-2.1,12.3-6.4,12.3h-28.2c-4.1,0-6.3-4.6-6.7-13.8l-7.9-263c0-1-.3-1.6-.8-1.8-.5-.2-.9,0-1,.8l-46.6,265.6c-1.4,8.2-4.3,12.3-8.7,12.3h-16.6c-4.1,0-7-4.1-8.7-12.3l-45.3-264.3c-.2-1-.5-1.2-1-.5-.2.3-.3.9-.3,1.5l-8.2,261.8c0,9.2-2,13.8-5.9,13.8h-28.9Z"/>
</svg>